<?xml version="1.0" standalone="no"?>
<!DOCTYPE svg PUBLIC "-//W3C//DTD SVG 1.1//EN" "http://www.w3.org/Graphics/SVG/1.1/DTD/svg11.dtd" >
<svg xmlns="http://www.w3.org/2000/svg">
<metadata></metadata>
<defs>
<font id="segoe_condensedregular" horiz-adv-x="874" >
<font-face units-per-em="2048" ascent="1638" descent="-410" />
<missing-glyph horiz-adv-x="469" />
<glyph horiz-adv-x="2048" />
<glyph horiz-adv-x="2048" />
<glyph unicode="&#xd;" horiz-adv-x="2048" />
<glyph unicode=" "  horiz-adv-x="469" />
<glyph unicode="&#x09;" horiz-adv-x="469" />
<glyph unicode="&#xa0;" horiz-adv-x="469" />
<glyph unicode="!" horiz-adv-x="498" d="M143 92q0 48 30 77.5t77 29.5q46 0 77 -30t31 -77q0 -46 -30 -77t-78 -31q-46 0 -76.5 31t-30.5 77zM166 1434h164l-21 -1012h-123z" />
<glyph unicode="&#x22;" horiz-adv-x="625" d="M125 1442h131l-16 -447h-101zM371 1442h131l-17 -447h-100z" />
<glyph unicode="#" horiz-adv-x="973" d="M41 512l16 98h193l55 324h-201l17 98h201l67 398h103l-68 -398h201l67 398h103l-68 -398h191l-21 -98h-186l-56 -324h199l-20 -98h-195l-68 -393h-102l68 393h-201l-68 -393h-102l67 393h-192zM352 610h199l59 324h-202z" />
<glyph unicode="$" d="M109 1067q0 142 76 240t214 123v186h82v-182q135 0 226 -52v-147q-99 69 -226 76v-547q161 -94 227 -187.5t66 -216.5q0 -134 -78 -233.5t-215 -122.5v-213h-82v209q-160 5 -282 86v152q117 -103 282 -115v532q-168 101 -229 194t-61 218zM244 1073q0 -87 36 -145.5 t119 -116.5v494q-71 -18 -113 -81t-42 -151zM481 129q158 40 158 225q0 142 -158 250v-475z" />
<glyph unicode="%" horiz-adv-x="1343" d="M70 1081q0 180 78 278.5t202 98.5q123 0 193.5 -96t70.5 -268q0 -168 -75.5 -271.5t-200.5 -103.5q-120 0 -194 99t-74 263zM184 1083q0 -118 43.5 -188t114.5 -70q73 0 115.5 71.5t42.5 193.5q0 120 -41 192t-113 72q-73 0 -117.5 -74t-44.5 -197zM252 -20l704 1452h123 l-702 -1452h-125zM727 338q0 178 78.5 277.5t202.5 99.5t195 -97t71 -268q0 -165 -76.5 -269t-200.5 -104q-123 0 -196.5 98.5t-73.5 262.5zM844 340q0 -117 42.5 -187.5t114.5 -70.5q75 0 116.5 72.5t41.5 193.5q0 122 -40.5 192t-112.5 70q-74 0 -118 -75t-44 -195z" />
<glyph unicode="&#x26;" horiz-adv-x="1149" d="M94 365q0 255 268 419q-129 178 -129 338q0 152 81.5 244t217.5 92q125 0 199 -84t74 -213q0 -127 -63 -218.5t-203 -176.5l301 -387q86 175 86 385h127q-5 -267 -135 -488l219 -276h-168l-135 166q-153 -191 -367 -191q-175 0 -274 110.5t-99 279.5zM233 373 q0 -121 67.5 -201t176.5 -80q160 0 287 166l-334 434q-197 -116 -197 -319zM362 1133q0 -132 111 -277q203 117 203 293q0 89 -40.5 143t-109.5 54q-76 0 -120 -59t-44 -154z" />
<glyph unicode="'" horiz-adv-x="381" d="M125 1442h131l-16 -447h-101z" />
<glyph unicode="(" horiz-adv-x="541" d="M137 561q0 515 248 873h131q-246 -371 -246 -871q0 -477 244 -858h-129q-248 348 -248 856z" />
<glyph unicode=")" horiz-adv-x="541" d="M27 1434h129q250 -366 250 -873q0 -500 -248 -856h-129q241 380 241 858q0 508 -243 871z" />
<glyph unicode="*" horiz-adv-x="766" d="M92 1104l33 113l217 -82l-18 299h118l-20 -301l217 84l35 -113l-232 -55l174 -250l-96 -70l-137 260l-141 -260l-97 70l174 250z" />
<glyph unicode="+" horiz-adv-x="1073" d="M158 545v106h327v406h105v-406h328v-106h-328v-408h-105v408h-327z" />
<glyph unicode="," horiz-adv-x="403" d="M57 -248l105 486h147l-135 -486h-117z" />
<glyph unicode="-" horiz-adv-x="649" d="M109 526v117h432v-117h-432z" />
<glyph unicode="." horiz-adv-x="403" d="M94 92q0 48 31 77.5t76 29.5q48 0 78 -30t30 -77q0 -46 -29.5 -77t-78.5 -31q-45 0 -76 32t-31 76z" />
<glyph unicode="/" horiz-adv-x="645" d="M-29 -238l551 1672h135l-553 -1672h-133z" />
<glyph unicode="0" d="M68 690q0 768 387 768q352 0 352 -733q0 -371 -99 -560.5t-278 -189.5q-170 0 -266 183.5t-96 531.5zM219 700q0 -598 219 -598t219 611q0 318 -51.5 468t-161.5 150q-225 0 -225 -631z" />
<glyph unicode="1" d="M121 1204v129l407 142v-1354h246v-121h-639v121h248v1184z" />
<glyph unicode="2" d="M74 0v117l301 415q135 186 188 304t53 231q0 122 -55.5 190t-152.5 68q-140 0 -279 -147v153q137 123 309 123q155 0 242.5 -98.5t87.5 -268.5q0 -127 -55 -260t-234 -368l-248 -330v-4h531v-125h-688z" />
<glyph unicode="3" d="M98 53v154q119 -101 244 -101q119 0 191.5 77.5t72.5 205.5q0 140 -81 214.5t-224 74.5h-90v127h72q135 0 208.5 72t73.5 200q0 114 -54 181t-155 67q-99 0 -215 -94v145q115 78 250 78q152 0 238 -94.5t86 -251.5q0 -281 -232 -358v-5q127 -26 201 -119t74 -231 q0 -186 -110.5 -300.5t-291.5 -114.5q-148 0 -258 73z" />
<glyph unicode="4" d="M23 391v101l505 942h144v-930h145v-113h-145v-391h-140v391h-509zM147 504h385v583q0 49 5 148h-5q-9 -22 -18 -48q-10 -27 -22 -48z" />
<glyph unicode="5" d="M125 37v147q116 -82 223 -82q124 0 195 90.5t71 231.5q0 149 -74 233t-214 84q-73 0 -170 -16v709h561v-125h-428v-453q73 8 100 8q184 0 280.5 -113t96.5 -313q0 -205 -108 -331.5t-300 -126.5q-143 0 -233 57z" />
<glyph unicode="6" d="M88 633q0 381 124.5 601t350.5 220q105 0 180 -37v-139q-83 53 -174 53q-151 0 -241.5 -168.5t-96.5 -464.5h5q85 209 268 209q139 0 226 -123t87 -319q0 -205 -101 -345t-265 -140q-173 0 -268 166.5t-95 486.5zM246 469q0 -153 60 -260t153 -107q91 0 150 99t59 243 q0 150 -55 246t-152 96q-93 0 -154 -97.5t-61 -219.5z" />
<glyph unicode="7" d="M72 1311v123h719v-78l-424 -1356h-156l432 1311h-571z" />
<glyph unicode="8" d="M78 348q0 266 244 397v5q-207 122 -207 346q0 159 92.5 258.5t243.5 99.5q143 0 230 -93t87 -243q0 -239 -225 -366v-4q258 -115 258 -383q0 -180 -97.5 -282.5t-277.5 -102.5q-155 0 -251.5 102t-96.5 266zM219 358q0 -116 59.5 -187t161.5 -71q103 0 161 70.5t58 187.5 q0 228 -227 328q-213 -111 -213 -328zM254 1104q0 -194 184 -293q189 98 189 293q0 107 -50 170t-133 63q-81 0 -135.5 -65t-54.5 -168z" />
<glyph unicode="9" d="M70 967q0 214 102 350.5t266 136.5q173 0 267 -165.5t94 -489.5q0 -397 -120 -608t-349 -211q-106 0 -195 43v141q91 -62 187 -62q158 0 243.5 158t87.5 465h-4q-77 -195 -260 -195q-140 0 -229.5 121t-89.5 316zM219 995q0 -156 59.5 -249t151.5 -93q86 0 148.5 90.5 t62.5 214.5q0 161 -60.5 267t-152.5 106q-91 0 -150 -95.5t-59 -240.5z" />
<glyph unicode=":" horiz-adv-x="403" d="M94 92q0 48 31 77.5t76 29.5q48 0 78 -30t30 -77q0 -46 -29.5 -77t-78.5 -31q-45 0 -76 32t-31 76zM94 940q0 48 31 77.5t76 29.5q48 0 78 -30.5t30 -76.5t-29.5 -77.5t-78.5 -31.5q-45 0 -76 32t-31 77z" />
<glyph unicode=";" horiz-adv-x="403" d="M43 -248l104 486h148l-137 -486h-115zM98 940q0 48 31 77.5t78 29.5q46 0 77 -30.5t31 -76.5t-30 -77.5t-78 -31.5q-47 0 -78 32t-31 77z" />
<glyph unicode="&#x3c;" horiz-adv-x="1073" d="M186 565v49l684 404v-123l-524 -301v-4l526 -297v-125z" />
<glyph unicode="=" horiz-adv-x="1073" d="M158 338v102h760v-102h-760zM158 754v104h760v-104h-760z" />
<glyph unicode="&#x3e;" horiz-adv-x="1073" d="M203 168v125l526 297v4l-526 301v123l686 -402v-51z" />
<glyph unicode="?" horiz-adv-x="700" d="M74 1208v150q118 100 262 100q143 0 226 -95t83 -241q0 -100 -36 -189.5t-142 -203.5q-54 -55 -78 -105t-24 -143v-69h-129v84q0 102 28 165t96 138q77 87 106.5 154.5t29.5 152.5q0 97 -50.5 161t-136.5 64q-122 0 -235 -123zM197 92q0 48 30 77.5t76 29.5q47 0 78 -30 t31 -77q0 -46 -30.5 -77t-78.5 -31q-47 0 -76.5 31.5t-29.5 76.5z" />
<glyph unicode="@" horiz-adv-x="1536" d="M121 606q0 369 188.5 609.5t478.5 240.5q283 0 456 -199t173 -516q0 -247 -91.5 -402t-231.5 -155q-171 0 -191 217h-4q-67 -217 -221 -217q-109 0 -174.5 99t-65.5 272q0 231 91.5 378.5t230.5 147.5q123 0 162 -125h2l4 54q3 46 4 55h115l-4 -62q-35 -444 -35 -522 q0 -192 96 -192q84 0 139 124.5t55 319.5q0 281 -134.5 450t-377.5 169q-241 0 -393.5 -212t-152.5 -534q0 -310 147 -501t391 -191q177 0 332 88v-113q-147 -77 -346 -77q-286 0 -464.5 217t-178.5 577zM559 559q0 -130 39 -200t104 -70q93 0 149 135t56 336q0 109 -38 166 t-97 57q-95 0 -154 -121.5t-59 -302.5z" />
<glyph unicode="A" horiz-adv-x="1030" d="M12 0l422 1434h168l414 -1434h-166l-113 414h-446l-115 -414h-164zM319 543h383l-161 592q-6 21 -25 131h-4l-5 -24q-14 -73 -22 -103z" />
<glyph unicode="B" horiz-adv-x="989" d="M166 0v1434h346q159 0 246.5 -90t87.5 -246q0 -250 -209 -336v-4q120 -15 191 -109t71 -231q0 -188 -101 -303t-272 -115h-360zM315 135h185q116 0 177.5 77t61.5 202q0 124 -71.5 192t-194.5 68h-158v-539zM315 809h142q104 0 167.5 70t63.5 186q0 107 -57.5 170 t-161.5 63h-154v-489z" />
<glyph unicode="C" horiz-adv-x="1014" d="M94 686q0 357 159.5 564.5t418.5 207.5q135 0 252 -53v-158q-112 74 -248 74q-188 0 -305 -170t-117 -449q0 -272 112.5 -430.5t286.5 -158.5q147 0 271 82v-148q-131 -72 -289 -72q-245 0 -393 194.5t-148 516.5z" />
<glyph unicode="D" horiz-adv-x="1171" d="M164 0v1434h323q289 0 439.5 -177t150.5 -520q0 -332 -159 -534.5t-441 -202.5h-313zM317 135h156q208 0 326.5 158.5t118.5 439.5q0 272 -112.5 418.5t-324.5 146.5h-164v-1163z" />
<glyph unicode="E" horiz-adv-x="881" d="M164 0v1434h584v-136h-431v-510h400v-135h-400v-518h457v-135h-610z" />
<glyph unicode="F" horiz-adv-x="829" d="M164 0v1434h586v-136h-433v-528h400v-137h-400v-633h-153z" />
<glyph unicode="G" horiz-adv-x="1137" d="M94 694q0 341 162.5 552.5t427.5 211.5q156 0 295 -69v-162q-146 94 -297 94q-189 0 -308.5 -173t-119.5 -441q0 -272 110 -433t289 -161q114 0 205 61v432h-240v135h392v-643q-162 -123 -369 -123q-243 0 -395 196t-152 523z" />
<glyph unicode="H" horiz-adv-x="1174" d="M164 0v1434h153v-631h539v631h156v-1434h-156v662h-539v-662h-153z" />
<glyph unicode="I" horiz-adv-x="481" d="M4 0v121h160v1192h-160v121h473v-121h-160v-1192h160v-121h-473z" />
<glyph unicode="J" horiz-adv-x="625" d="M18 0v150q57 -31 113 -31q106 0 151.5 90.5t45.5 296.5v928h153v-947q0 -261 -82 -386.5t-262 -125.5q-64 0 -119 25z" />
<glyph unicode="K" horiz-adv-x="961" d="M164 0v1434h153v-689h5q18 40 24 48l406 641h176l-451 -691l484 -743h-187l-430 678q-10 16 -13 25q-4 12 -9 24h-5v-727h-153z" />
<glyph unicode="L" horiz-adv-x="807" d="M164 0v1434h153v-1299h441v-135h-594z" />
<glyph unicode="M" horiz-adv-x="1462" d="M164 0v1434h194l340 -772q23 -52 39 -119h4q11 51 19 71.5t20 54.5l332 765h188v-1434h-139v981q0 83 0.5 121.5t10.5 150.5h-7q-16 -46 -379 -886h-108q-354 826 -383 892h-8q12 -150 12 -279v-980h-135z" />
<glyph unicode="N" horiz-adv-x="1221" d="M164 0v1434h176l526 -1067q17 -34 43 -104q6 -16 11 -27h2l-4 172v1026h139v-1434h-170l-533 1069q-28 55 -53 131h-2q2 -34 2 -95v-1105h-137z" />
<glyph unicode="O" horiz-adv-x="1210" d="M94 700q0 349 135.5 553.5t388.5 204.5q242 0 371 -195t129 -540q0 -352 -134 -550t-384 -198q-242 0 -374 195.5t-132 529.5zM254 713q0 -280 91.5 -440t260.5 -160q172 0 261 159.5t89 436.5q0 286 -87.5 449t-256.5 163q-173 0 -265.5 -165t-92.5 -443z" />
<glyph unicode="P" horiz-adv-x="954" d="M164 0v1434h328q187 0 289 -109t102 -315q0 -202 -112 -335.5t-308 -133.5h-146v-541h-153zM317 678h136q131 0 200.5 86.5t69.5 232.5q0 301 -256 301h-150v-620z" />
<glyph unicode="Q" horiz-adv-x="1210" d="M94 700q0 349 135.5 553.5t388.5 204.5q242 0 371 -195t129 -540q0 -352 -134 -550q-92 -136 -240 -178q114 -224 242 -224q48 0 90 17v-130q-52 -14 -108 -14h-11q-56 0 -103.5 23.5t-92.5 66.5t-89 104.5t-93 137.5q-227 8 -353 194q-132 196 -132 530zM254 713 q0 -280 91.5 -440t260.5 -160q120 0 235 159.5t115 436.5q0 286 -87.5 449t-256.5 163q-173 0 -265.5 -165t-92.5 -443z" />
<glyph unicode="R" horiz-adv-x="1001" d="M164 0v1434h340q180 0 277.5 -102.5t97.5 -276.5q0 -311 -263 -391v-5q82 -31 146 -217l160 -442h-174l-138 397q-43 125 -85.5 170t-102.5 45h-105v-612h-153zM317 748h156q108 0 177 78.5t69 205.5q0 130 -64 199t-182 69h-156v-552z" />
<glyph unicode="S" horiz-adv-x="844" d="M100 53v170q136 -110 271 -110q108 0 166.5 62t58.5 165q0 91 -42.5 157.5t-184.5 164.5q-144 97 -206.5 191.5t-62.5 221.5q0 170 103 276.5t270 106.5q135 0 234 -47v-158q-112 68 -230 68q-97 0 -157 -66t-60 -161q0 -91 43.5 -159t177.5 -157q154 -102 215.5 -201 t61.5 -219q0 -169 -99.5 -276t-285.5 -107q-161 0 -273 78z" />
<glyph unicode="T" horiz-adv-x="868" d="M41 1298v136h788v-136h-317v-1298h-154v1298h-317z" />
<glyph unicode="U" horiz-adv-x="1130" d="M145 565v869h156v-871q0 -450 268 -450q262 0 262 438v883h154v-848q0 -611 -422 -611q-418 0 -418 590z" />
<glyph unicode="V" horiz-adv-x="1051" d="M43 1434h164l285 -1082q18 -67 26 -149h4q2 24 31 153l297 1078h158l-416 -1434h-152z" />
<glyph unicode="W" horiz-adv-x="1487" d="M18 1434h166l222 -1063q14 -65 20 -148h4q4 27 13 74l14 74l231 1063h141l220 -1072q18 -89 22 -139h4q7 49 11 69l229 1142h155l-319 -1434h-164l-215 1022q-16 74 -20 149h-4q-2 -44 -23 -147l-229 -1024h-162z" />
<glyph unicode="X" horiz-adv-x="981" d="M41 0l367 725l-336 709h170l221 -506q24 -54 37 -103h2q27 77 41 103l231 506h164l-352 -707l350 -727h-172l-236 528q-14 31 -32 99h-4q-23 -69 -39 -101l-246 -526h-166z" />
<glyph unicode="Y" horiz-adv-x="924" d="M27 1434h176l225 -625q12 -35 18 -59q7 -32 15 -60h4q16 73 33 117l235 627h164l-365 -904v-530h-153v526z" />
<glyph unicode="Z" horiz-adv-x="967" d="M57 0v88l648 1210h-599v136h789v-84l-643 -1215h639v-135h-834z" />
<glyph unicode="[" horiz-adv-x="541" d="M193 -326v1760h303v-109h-177v-1542h177v-109h-303z" />
<glyph unicode="\" horiz-adv-x="641" d="M-14 1434h137l545 -1672h-133z" />
<glyph unicode="]" horiz-adv-x="541" d="M45 -217h176v1542h-176v109h303v-1760h-303v109z" />
<glyph unicode="^" horiz-adv-x="1073" d="M131 766l379 692h49l383 -692h-123l-282 537h-5l-276 -537h-125z" />
<glyph unicode="_" horiz-adv-x="850" d="M0 -178h850v-119h-850v119z" />
<glyph unicode="`" horiz-adv-x="477" d="M68 1507h139l194 -325h-116z" />
<glyph unicode="a" horiz-adv-x="850" d="M70 268q0 265 274 328l242 55v68q0 199 -176 199q-125 0 -260 -107v147q142 84 280 84q301 0 301 -333v-709h-145v154h-4q-78 -172 -260 -172q-113 0 -182.5 80.5t-69.5 205.5zM215 291q0 -85 44 -135t114 -50q98 0 155.5 79t57.5 206v148l-201 -45q-170 -38 -170 -203z " />
<glyph unicode="b" horiz-adv-x="946" d="M131 0v1516h145v-660h5q81 186 270 186q153 0 236 -129t83 -352q0 -274 -93 -426.5t-267 -152.5q-157 0 -229 149h-5v-131h-145zM274 428q0 -140 56 -229.5t155 -89.5q234 0 234 438q0 179 -56 273.5t-157 94.5q-109 0 -170.5 -96.5t-61.5 -247.5v-143z" />
<glyph unicode="c" horiz-adv-x="737" d="M76 492q0 254 118.5 403t301.5 149q111 0 180 -47v-147q-79 68 -172 68q-123 0 -200 -117.5t-77 -298.5q0 -180 70 -286.5t186 -106.5q108 0 193 75v-137q-93 -65 -217 -65q-171 0 -277 142.5t-106 367.5z" />
<glyph unicode="d" horiz-adv-x="946" d="M76 489q0 256 97 404.5t263 148.5q157 0 230 -155h4v629h145v-1516h-145v166h-4q-73 -184 -258 -184q-158 0 -245 139.5t-87 367.5zM227 496q0 -189 57 -288t162 -99q106 0 165 93t59 251v149q0 144 -54.5 228.5t-152.5 84.5q-236 0 -236 -419z" />
<glyph unicode="e" horiz-adv-x="850" d="M76 518q0 232 103 378t280 146q332 0 332 -467v-98h-566q0 -371 269 -371q116 0 237 82v-137q-120 -69 -256 -69q-195 0 -297 136t-102 400zM227 594h420q0 328 -194 328q-97 0 -157.5 -83t-68.5 -245z" />
<glyph unicode="f" horiz-adv-x="512" d="M27 901v123h147v205q0 141 72.5 222t206.5 81q37 0 90 -10v-129q-35 12 -82 12q-142 0 -142 -174v-207h205v-123h-205v-901h-145v901h-147z" />
<glyph unicode="g" horiz-adv-x="946" d="M74 499q0 256 97 404.5t263 148.5q161 0 230 -157h4v139h145v-954q0 -551 -455 -551q-118 0 -225 43v149q116 -63 225 -63q310 0 310 375v143h-4q-73 -184 -258 -184q-158 0 -245 139.5t-87 367.5zM217 506q0 -189 57 -288t162 -99q106 0 165 93t59 251v149 q0 144 -54.5 228.5t-152.5 84.5q-236 0 -236 -419z" />
<glyph unicode="h" horiz-adv-x="940" d="M131 0v1516h145v-646h5q77 172 260 172q278 0 278 -327v-715h-145v680q0 235 -185 235q-95 0 -154 -68.5t-59 -187.5v-659h-145z" />
<glyph unicode="i" horiz-adv-x="406" d="M82 1348q0 45 30.5 72.5t72.5 27.5q43 0 72.5 -27.5t29.5 -72.5q0 -44 -28.5 -73.5t-73.5 -29.5q-43 0 -73 29.5t-30 73.5zM111 0v1024h145v-1024h-145z" />
<glyph unicode="j" horiz-adv-x="406" d="M-152 -313q61 -41 113 -41q170 0 170 315v1063h145v-1028q0 -477 -309 -477q-55 0 -119 32v136zM102 1348q0 45 30.5 72.5t72.5 27.5q43 0 72.5 -27.5t29.5 -72.5q0 -44 -28.5 -73.5t-73.5 -29.5q-43 0 -73 29.5t-30 73.5z" />
<glyph unicode="k" horiz-adv-x="805" d="M131 0v1516h145v-971h3l321 479h170l-346 -487l371 -537h-174l-342 512h-3v-512h-145z" />
<glyph unicode="l" horiz-adv-x="406" d="M131 0v1516h145v-1516h-145z" />
<glyph unicode="m" horiz-adv-x="1421" d="M131 0v1024h145v-152h5q80 170 249 170q185 0 240 -186q82 186 268 186q265 0 265 -317v-725h-148v686q0 229 -168 229q-88 0 -143.5 -66.5t-55.5 -182.5v-666h-145v678q0 237 -164 237q-86 0 -144.5 -67t-58.5 -186v-662h-145z" />
<glyph unicode="n" horiz-adv-x="907" d="M101 0v1024h145v-154h5q77 172 260 172q278 0 278 -327v-715h-145v680q0 235 -185 235q-95 0 -154 -68.5t-59 -187.5v-659h-145z" />
<glyph unicode="o" horiz-adv-x="924" d="M76 504q0 255 104 396.5t287 141.5q180 0 281.5 -138.5t101.5 -379.5q0 -256 -100.5 -399t-290.5 -143q-184 0 -283.5 139t-99.5 383zM227 510q0 -401 238 -401q231 0 231 407q0 192 -60 295.5t-171 103.5q-113 0 -175.5 -105t-62.5 -300z" />
<glyph unicode="p" horiz-adv-x="946" d="M131 -471v1495h145v-168h3q81 186 270 186q155 0 238 -126.5t83 -354.5q0 -268 -91.5 -423.5t-260.5 -155.5q-166 0 -237 149h-5v-602h-145zM274 432q0 -146 56.5 -234.5t158.5 -88.5q230 0 230 442q0 176 -55 270t-158 94q-107 0 -169.5 -94t-62.5 -254v-135z" />
<glyph unicode="q" horiz-adv-x="946" d="M76 487q0 262 97 408.5t261 146.5q160 0 232 -157h4v139h145v-1495h-145v637h-4q-75 -184 -260 -184q-153 0 -241.5 137.5t-88.5 367.5zM227 496q0 -182 57 -284.5t160 -102.5q109 0 168.5 93t59.5 249v151q0 140 -55.5 226.5t-153.5 86.5q-114 0 -175 -109t-61 -310z " />
<glyph unicode="r" horiz-adv-x="598" d="M131 0v1024h145v-180h5q52 196 229 196q50 0 82 -12v-147q-51 20 -94 20q-222 0 -222 -379v-522h-145z" />
<glyph unicode="s" horiz-adv-x="709" d="M88 35v145q113 -76 223 -76q181 0 181 160q0 51 -35 93t-133 98q-149 83 -191.5 152t-42.5 151q0 125 88.5 204.5t229.5 79.5q112 0 198 -41v-139q-101 58 -194 58q-80 0 -126 -43t-46 -113q0 -48 30 -90.5t142 -106.5q146 -82 187.5 -149.5t41.5 -151.5 q0 -123 -87 -203.5t-241 -80.5q-129 0 -225 53z" />
<glyph unicode="t" horiz-adv-x="535" d="M18 901v123h140v254q8 2 29 9q84 29 116 38v-301h211v-123h-211v-641q0 -151 117 -151q51 0 94 22v-123q-61 -26 -133 -26q-223 0 -223 264v655h-140z" />
<glyph unicode="u" horiz-adv-x="940" d="M121 309v715h145v-680q0 -235 185 -235q95 0 155 69.5t60 186.5v659h145v-1024h-145v154h-4q-83 -172 -261 -172q-280 0 -280 327z" />
<glyph unicode="v" horiz-adv-x="784" d="M8 1024h154l192 -768q17 -67 23 -131h2q15 93 27 131l223 768h149l-321 -1024h-166z" />
<glyph unicode="w" horiz-adv-x="1198" d="M27 1024h149l158 -762q11 -53 16 -110h6q6 58 12 86q3 14 5 26l174 760h135l158 -762q4 -21 12 -110h6q0 30 11 84q3 14 5 26l162 762h138l-244 -1024h-154l-155 721q-7 34 -15 127h-4q-4 -52 -16 -125l-168 -723h-154z" />
<glyph unicode="x" horiz-adv-x="756" d="M18 0l275 506l-266 518h163l152 -340q19 -43 37 -94h2q8 20 16 45q7 25 17 45l168 344h153l-280 -518l274 -506h-162l-159 326q-17 35 -35 92h-4q-12 -43 -35 -92l-160 -326h-156z" />
<glyph unicode="y" horiz-adv-x="784" d="M6 1024h164l197 -752q14 -53 22 -120h4q19 89 27 118l207 754h153l-364 -1192q-96 -313 -283 -313q-54 0 -100 20v125q35 -18 80 -18q93 0 145 157l61 197z" />
<glyph unicode="z" horiz-adv-x="766" d="M35 0v78l491 823h-452v123h635v-82l-486 -819h492v-123h-680z" />
<glyph unicode="{" horiz-adv-x="541" d="M94 483v92q125 16 125 224v301q0 325 252 332v-101q-127 -3 -127 -221v-301q0 -227 -115 -274v-5q115 -53 115 -290v-246q0 -227 127 -232v-98q-128 2 -190 74.5t-62 247.5v268q0 208 -125 229z" />
<glyph unicode="|" horiz-adv-x="393" d="M137 -481v2048h121v-2048h-121z" />
<glyph unicode="}" horiz-adv-x="541" d="M76 -238q60 4 92.5 52t32.5 180v268q0 216 116 266v4q-116 55 -116 299v277q0 220 -125 223v101q252 -8 252 -326v-297q0 -217 123 -234v-92q-123 -18 -123 -217v-274q0 -180 -61.5 -252.5t-190.5 -75.5v98z" />
<glyph unicode="~" horiz-adv-x="1073" d="M158 459q13 278 219 278q51 0 96.5 -27.5t115.5 -95.5q58 -57 109 -57t81.5 50t33.5 126h105q-17 -278 -220 -278q-83 0 -184 96q-82 82 -135 82q-110 0 -119 -174h-102z" />
<glyph unicode="&#xa1;" horiz-adv-x="498" d="M141 940q0 47 31 77t76 30q48 0 78 -31t30 -76q0 -48 -31 -78.5t-77 -30.5q-47 0 -77 31.5t-30 77.5zM170 -408l20 1010h123l21 -1010h-164z" />
<glyph unicode="&#xa2;" d="M131 664q0 218 97.5 365t263.5 175v207h94v-201q90 -3 162 -45v-147q-72 60 -162 65v-813q95 16 162 74v-131q-60 -49 -162 -61v-201h-94v201q-168 18 -264.5 156t-96.5 356zM272 666q0 -157 60 -262.5t160 -127.5v799q-104 -31 -162 -143.5t-58 -265.5z" />
<glyph unicode="&#xa3;" d="M113 0v113q180 86 180 342v209h-164v112h164v275q0 192 83 299.5t232 107.5q78 0 160 -41v-131q-76 53 -154 53q-184 0 -184 -299v-264h232v-112h-232v-177q0 -262 -149 -368h553v-119h-721z" />
<glyph unicode="&#xa4;" horiz-adv-x="1139" d="M119 354l137 133q-80 116 -80 238q0 138 80 238l-137 135l74 76l137 -136q110 80 239 80q141 0 238 -80l139 136l74 -76l-137 -135q80 -106 80 -238q0 -126 -80 -238l137 -133l-74 -75l-137 135q-100 -82 -240 -82q-135 0 -239 82l-137 -135zM281 727q0 -118 85.5 -204.5 t202.5 -86.5q116 0 202.5 86t86.5 205q0 121 -87 204t-200 83q-122 0 -206 -84t-84 -203z" />
<glyph unicode="&#xa5;" d="M43 1434h152l215 -535q11 -28 20 -54q6 -21 16 -48h3q14 55 32 106l217 531h142l-299 -670h247v-107h-276v-235h276v-107h-276v-315h-143v315h-283v107h283v235h-283v107h250z" />
<glyph unicode="&#xa6;" horiz-adv-x="393" d="M137 381h121v-862h-121v862zM137 707v860h121v-860h-121z" />
<glyph unicode="&#xa7;" horiz-adv-x="752" d="M123 739q0 155 123 252q-94 85 -94 217q0 125 73 204t195 79q97 0 174 -45v-127q-88 63 -172 63q-69 0 -109.5 -49.5t-40.5 -122.5q0 -65 40 -116.5t165 -122.5q176 -99 176 -285q0 -159 -123 -278q76 -76 76 -189q0 -125 -76 -205t-202 -80q-99 0 -195 58v127 q109 -76 193 -76q73 0 116 50.5t43 119.5q0 113 -134 196q-126 77 -177 145.5t-51 184.5zM238 750q0 -84 40.5 -140t170.5 -131q90 85 90 197q0 82 -46.5 136.5t-162.5 115.5q-92 -70 -92 -178z" />
<glyph unicode="&#xa8;" horiz-adv-x="657" d="M74 1276q0 40 27 66t65 26q42 0 69 -25t27 -67q0 -40 -26 -67t-68 -27q-37 0 -65.5 25.5t-28.5 68.5zM395 1276q0 40 27.5 66t66.5 26q41 0 69 -25t28 -67q0 -40 -26 -67t-68 -27q-41 0 -69 27t-28 67z" />
<glyph unicode="&#xa9;" horiz-adv-x="1753" d="M125 715q0 310 220 526.5t532 216.5q313 0 532 -215.5t219 -525.5q0 -309 -219.5 -525.5t-531.5 -216.5q-316 0 -534 214.5t-218 525.5zM219 715q0 -273 191.5 -464.5t466.5 -191.5q270 0 463.5 191t193.5 465q0 276 -192 466.5t-465 190.5q-275 0 -466.5 -191.5 t-191.5 -465.5zM414 692q0 242 144 385.5t370 143.5q119 0 231 -56v-123q-107 64 -246 64q-153 0 -260.5 -107t-107.5 -288q0 -177 109 -283t270 -106q136 0 243 69v-117q-121 -67 -252 -67q-211 0 -356 139.5t-145 345.5z" />
<glyph unicode="&#xaa;" horiz-adv-x="713" d="M102 905q0 207 209 244l154 27q0 186 -117 186q-85 0 -194 -88v112q101 68 211 68q213 0 213 -285v-454h-113v112h-4q-58 -129 -185 -129q-80 0 -127 59.5t-47 147.5zM213 918q0 -56 26 -91.5t74 -35.5q62 0 107 74.5t45 160.5v68l-117 -23q-135 -27 -135 -153z" />
<glyph unicode="&#xab;" horiz-adv-x="825" d="M74 537l233 344h139l-239 -344l239 -336h-139zM377 537l235 344h142l-242 -344l240 -336h-140z" />
<glyph unicode="&#xac;" horiz-adv-x="1073" d="M158 623v104h760v-522h-107v418h-653z" />
<glyph unicode="&#xad;" horiz-adv-x="622" d="M96 511v116h441v-116h-441z" />
<glyph unicode="&#xae;" horiz-adv-x="1753" d="M125 715q0 310 220 526.5t532 216.5q313 0 532 -215.5t219 -525.5q0 -309 -219.5 -525.5t-531.5 -216.5q-316 0 -534 214.5t-218 525.5zM219 715q0 -273 191.5 -464.5t466.5 -191.5q270 0 463.5 191t193.5 465q0 276 -192 466.5t-465 190.5q-275 0 -466.5 -191.5 t-191.5 -465.5zM588 248v954h278q164 0 253 -69t89 -187q0 -210 -243 -262v-4q83 -17 155 -166l121 -266h-141l-105 244q-71 165 -180 165h-104v-409h-123zM711 752h172q91 0 143.5 49t52.5 127q0 176 -219 176h-149v-352z" />
<glyph unicode="&#xaf;" horiz-adv-x="850" d="M0 1612v119h850v-119h-850z" />
<glyph unicode="&#xb0;" horiz-adv-x="743" d="M111 1182q0 107 76 182.5t184 75.5q107 0 183.5 -75t76.5 -183q0 -109 -76 -184.5t-182 -75.5t-184 75.5t-78 184.5zM211 1182q0 -69 48 -117.5t112 -48.5q63 0 110 48.5t47 117.5q0 67 -44 115.5t-111 48.5q-66 0 -114 -49t-48 -115z" />
<glyph unicode="&#xb1;" horiz-adv-x="1073" d="M158 0v104h760v-104h-760zM158 651v105h327v407h105v-407h328v-105h-328v-407h-105v407h-327z" />
<glyph unicode="&#xb2;" horiz-adv-x="608" d="M84 584v98l186 246q88 116 108.5 173.5t20.5 100.5q0 66 -30 108t-82 42q-89 0 -172 -92v116q86 78 192 78q95 0 153 -65t58 -172q0 -73 -35 -145t-145 -214l-131 -170v-4h317v-100h-440z" />
<glyph unicode="&#xb3;" horiz-adv-x="608" d="M104 612v111q81 -66 160 -66q68 0 105 45.5t37 120.5q0 69 -44.5 110.5t-128.5 41.5h-65v94h57q76 0 116 42.5t40 111.5q0 135 -117 135q-63 0 -137 -58v105q74 49 160 49q96 0 151.5 -58.5t55.5 -154.5q0 -153 -125 -207v-4q70 -20 109.5 -78t39.5 -131 q0 -111 -67 -184.5t-179 -73.5q-93 0 -168 49z" />
<glyph unicode="&#xb4;" horiz-adv-x="479" d="M102 1182l197 325h137l-217 -325h-117z" />
<glyph unicode="&#xb5;" horiz-adv-x="950" d="M131 -371v1395h145v-590q0 -325 185 -325q95 0 154 87.5t59 235.5v592h145v-1024h-145v172h-4q-66 -190 -221 -190q-112 0 -168 94h-5v-447h-145z" />
<glyph unicode="&#xb6;" horiz-adv-x="858" d="M59 1161q0 122 76 197.5t182 75.5h437v-93h-109v-1341h-96v1341h-143v-1341h-101v887q-105 4 -175.5 82t-70.5 192z" />
<glyph unicode="&#xb7;" horiz-adv-x="403" d="M94 694q0 48 31 78.5t76 30.5q48 0 78 -31t30 -78q0 -46 -31 -77t-77 -31q-45 0 -76 32t-31 76z" />
<glyph unicode="&#xb8;" horiz-adv-x="414" d="M70 -342q33 -6 61 -6q111 0 111 86q0 80 -101 80h-21q-9 0 -20 -2v184h90v-106q164 -10 164 -152q0 -180 -219 -180q-29 0 -65 4v92z" />
<glyph unicode="&#xb9;" horiz-adv-x="600" d="M109 1266v104l270 88v-778h145v-96h-401v96h147v643z" />
<glyph unicode="&#xba;" horiz-adv-x="788" d="M102 1075q0 178 82 278.5t215 100.5q134 0 209.5 -102t75.5 -273q0 -172 -78.5 -277.5t-212.5 -105.5q-135 0 -213 106t-78 273zM223 1073q0 -126 47 -201t125 -75q79 0 123.5 74.5t44.5 207.5q0 129 -43 203t-123 74q-79 0 -126.5 -76t-47.5 -207z" />
<glyph unicode="&#xbb;" horiz-adv-x="825" d="M74 201l241 340l-239 340h139l236 -340l-236 -340h-141zM381 201l240 340l-240 340h139l236 -340l-236 -340h-139z" />
<glyph unicode="&#xbc;" horiz-adv-x="1458" d="M92 1266v104l270 88v-778h145v-96h-401v96h147v643zM314 0l694 1434h123l-690 -1434h-127zM850 217v78l295 555h123v-541h88v-92h-88v-217h-107v217h-311zM950 309h211v334q0 5 0.5 15.5t0.5 21.5t0.5 22t0.5 17h-4q-8 -19 -16.5 -39.5t-18.5 -36.5z" />
<glyph unicode="&#xbd;" horiz-adv-x="1479" d="M92 1266v104l270 88v-778h145v-96h-401v96h147v643zM315 0l694 1434h123l-690 -1434h-127zM936 0v98l186 246q88 116 108.5 173.5t20.5 100.5q0 66 -30 108t-82 42q-89 0 -172 -92v116q86 78 192 78q95 0 153 -65t58 -172q0 -73 -35 -145t-145 -214l-131 -170v-4h317 v-100h-440z" />
<glyph unicode="&#xbe;" horiz-adv-x="1487" d="M104 612v111q81 -66 160 -66q68 0 105 45.5t37 120.5q0 69 -44.5 110.5t-128.5 41.5h-65v94h57q76 0 116 42.5t40 111.5q0 135 -117 135q-63 0 -137 -58v105q74 49 160 49q96 0 151.5 -58.5t55.5 -154.5q0 -153 -125 -207v-4q70 -20 109.5 -78t39.5 -131 q0 -111 -67 -184.5t-179 -73.5q-93 0 -168 49zM329 0l694 1434h123l-690 -1434h-127zM852 217v78l295 555h123v-541h88v-92h-88v-217h-107v217h-311zM952 309h211v334q0 5 0.5 15.5t0.5 21.5t0.5 22t0.5 17h-4q-8 -19 -16.5 -39.5t-18.5 -36.5z" />
<glyph unicode="&#xbf;" horiz-adv-x="700" d="M74 -92q0 104 37.5 193.5t140.5 199.5q50 52 76 103t26 145v69h129v-83q0 -83 -21.5 -149.5t-101.5 -154.5q-137 -149 -137 -307q0 -97 50.5 -161t136.5 -64q122 0 235 121v-148q-118 -100 -262 -100q-143 0 -226 95t-83 241zM307 938q0 46 30.5 77.5t78.5 31.5 q47 0 77.5 -32t30.5 -77q0 -48 -31 -77.5t-77 -29.5q-47 0 -78 30.5t-31 76.5z" />
<glyph unicode="&#xc0;" horiz-adv-x="1030" d="M12 0l422 1434h168l414 -1434h-166l-113 414h-446l-115 -414h-164zM299 1892h139l194 -325h-116zM319 543h383l-161 592q-6 21 -25 131h-4l-5 -24q-14 -73 -22 -103z" />
<glyph unicode="&#xc1;" horiz-adv-x="1030" d="M12 0l422 1434h168l414 -1434h-166l-113 414h-446l-115 -414h-164zM319 543h383l-161 592q-6 21 -25 131h-4l-5 -24q-14 -73 -22 -103zM376 1567l197 325h137l-217 -325h-117z" />
<glyph unicode="&#xc2;" horiz-adv-x="1030" d="M12 0l422 1434h168l414 -1434h-166l-113 414h-446l-115 -414h-164zM285 1567l180 331h100l181 -331h-109l-125 223l-125 -223h-102zM319 543h383l-161 592q-6 21 -25 131h-4l-5 -24q-14 -73 -22 -103z" />
<glyph unicode="&#xc3;" horiz-adv-x="1030" d="M12 0l422 1434h168l414 -1434h-166l-113 414h-446l-115 -414h-164zM247 1567q0 112 43.5 175.5t112.5 63.5q59 0 129 -63q66 -58 103 -58q32 0 51.5 39t19.5 101h88q0 -113 -42.5 -177.5t-110.5 -64.5q-52 0 -131 64q-65 55 -99 55q-75 0 -75 -135h-89zM319 543h383 l-161 592q-6 21 -25 131h-4l-5 -24q-14 -73 -22 -103z" />
<glyph unicode="&#xc4;" horiz-adv-x="1030" d="M12 0l422 1434h168l414 -1434h-166l-113 414h-446l-115 -414h-164zM260 1661q0 40 27 66t65 26q42 0 69 -25t27 -67q0 -40 -26 -67t-68 -27q-37 0 -65.5 25.5t-28.5 68.5zM319 543h383l-161 592q-6 21 -25 131h-4l-5 -24q-14 -73 -22 -103zM581 1661q0 40 27.5 66 t66.5 26q41 0 69 -25t28 -67q0 -40 -26 -67t-68 -27q-41 0 -69 27t-28 67z" />
<glyph unicode="&#xc5;" horiz-adv-x="1030" d="M12 0l406 1382q-101 52 -101 162q0 84 56.5 140.5t140.5 56.5t140.5 -56.5t56.5 -140.5q0 -107 -95 -160l400 -1384h-166l-113 414h-446l-115 -414h-164zM319 543h383l-161 592q-6 21 -25 131h-4l-5 -24q-14 -73 -22 -103zM406 1542q0 -43 31 -75.5t77 -32.5q47 0 78 32 t31 78t-31 77.5t-78 31.5q-46 0 -77 -33t-31 -78z" />
<glyph unicode="&#xc6;" horiz-adv-x="1417" d="M-2 0l526 1434h762v-140h-430v-508h401v-135h-401v-516h455v-135h-609v414h-393l-145 -414h-166zM352 543h350v751h-88z" />
<glyph unicode="&#xc7;" horiz-adv-x="1014" d="M94 686q0 357 159.5 564.5t418.5 207.5q135 0 252 -53v-158q-112 74 -248 74q-188 0 -305 -170t-117 -449q0 -272 112.5 -430.5t286.5 -158.5q147 0 271 82v-148q-143 -78 -308 -72v-81q166 -10 166 -152q0 -180 -219 -180q-31 0 -65 4v92q30 -6 61 -6q111 0 111 86 q0 80 -101 80h-21q-9 0 -20 -2v170q-203 44 -318.5 231.5t-115.5 468.5z" />
<glyph unicode="&#xc8;" horiz-adv-x="881" d="M164 0v1434h584v-136h-431v-510h400v-135h-400v-518h457v-135h-610zM250 1892h139l194 -325h-116z" />
<glyph unicode="&#xc9;" horiz-adv-x="881" d="M164 0v1434h584v-136h-431v-510h400v-135h-400v-518h457v-135h-610zM356 1567l197 325h137l-217 -325h-117z" />
<glyph unicode="&#xca;" horiz-adv-x="881" d="M164 0v1434h584v-136h-431v-510h400v-135h-400v-518h457v-135h-610zM228 1567l180 331h100l181 -331h-109l-125 223l-125 -223h-102z" />
<glyph unicode="&#xcb;" horiz-adv-x="881" d="M164 0v1434h584v-136h-431v-510h400v-135h-400v-518h457v-135h-610zM207 1661q0 40 27 66t65 26q42 0 69 -25t27 -67q0 -40 -26 -67t-68 -27q-37 0 -65.5 25.5t-28.5 68.5zM528 1661q0 40 27.5 66t66.5 26q41 0 69 -25t28 -67q0 -40 -26 -67t-68 -27q-41 0 -69 27t-28 67 z" />
<glyph unicode="&#xcc;" horiz-adv-x="481" d="M3 1892h139l194 -325h-116zM4 0v121h160v1192h-160v121h473v-121h-160v-1192h160v-121h-473z" />
<glyph unicode="&#xcd;" horiz-adv-x="481" d="M4 0v121h160v1192h-160v121h473v-121h-160v-1192h160v-121h-473zM112 1567l197 325h137l-217 -325h-117z" />
<glyph unicode="&#xce;" horiz-adv-x="481" d="M4 0v121h160v1192h-160v121h473v-121h-160v-1192h160v-121h-473zM14 1567l180 331h100l181 -331h-109l-125 223l-125 -223h-102z" />
<glyph unicode="&#xcf;" horiz-adv-x="481" d="M-13 1661q0 40 27 66t65 26q42 0 69 -25t27 -67q0 -40 -26 -67t-68 -27q-37 0 -65.5 25.5t-28.5 68.5zM4 0v121h160v1192h-160v121h473v-121h-160v-1192h160v-121h-473zM308 1661q0 40 27.5 66t66.5 26q41 0 69 -25t28 -67q0 -40 -26 -67t-68 -27q-41 0 -69 27t-28 67z " />
<glyph unicode="&#xd0;" horiz-adv-x="1171" d="M27 651v127h137v656h325q287 0 437.5 -177.5t150.5 -519.5q0 -327 -158 -532t-444 -205h-311v651h-137zM317 135h156q208 0 326.5 158.5t118.5 439.5q0 272 -112.5 418.5t-324.5 146.5h-164v-520h263v-127h-263v-516z" />
<glyph unicode="&#xd1;" horiz-adv-x="1221" d="M164 0v1434h176l526 -1067q17 -34 43 -104q6 -16 11 -27h2l-4 172v1026h139v-1434h-170l-533 1069q-28 55 -53 131h-2q2 -34 2 -95v-1105h-137zM342 1567q0 112 43.5 175.5t112.5 63.5q59 0 129 -63q66 -58 103 -58q32 0 51.5 39t19.5 101h88q0 -113 -42.5 -177.5 t-110.5 -64.5q-52 0 -131 64q-65 55 -99 55q-75 0 -75 -135h-89z" />
<glyph unicode="&#xd2;" horiz-adv-x="1210" d="M94 700q0 349 135.5 553.5t388.5 204.5q242 0 371 -195t129 -540q0 -352 -134 -550t-384 -198q-242 0 -374 195.5t-132 529.5zM254 713q0 -280 91.5 -440t260.5 -160q172 0 261 159.5t89 436.5q0 286 -87.5 449t-256.5 163q-173 0 -265.5 -165t-92.5 -443zM390 1892h139 l194 -325h-116z" />
<glyph unicode="&#xd3;" horiz-adv-x="1210" d="M94 700q0 349 135.5 553.5t388.5 204.5q242 0 371 -195t129 -540q0 -352 -134 -550t-384 -198q-242 0 -374 195.5t-132 529.5zM254 713q0 -280 91.5 -440t260.5 -160q172 0 261 159.5t89 436.5q0 286 -87.5 449t-256.5 163q-173 0 -265.5 -165t-92.5 -443zM499 1567 l197 325h137l-217 -325h-117z" />
<glyph unicode="&#xd4;" horiz-adv-x="1210" d="M94 700q0 349 135.5 553.5t388.5 204.5q242 0 371 -195t129 -540q0 -352 -134 -550t-384 -198q-242 0 -374 195.5t-132 529.5zM254 713q0 -280 91.5 -440t260.5 -160q172 0 261 159.5t89 436.5q0 286 -87.5 449t-256.5 163q-173 0 -265.5 -165t-92.5 -443zM391 1567 l180 331h100l181 -331h-109l-125 223l-125 -223h-102z" />
<glyph unicode="&#xd5;" horiz-adv-x="1210" d="M94 700q0 349 135.5 553.5t388.5 204.5q242 0 371 -195t129 -540q0 -352 -134 -550t-384 -198q-242 0 -374 195.5t-132 529.5zM254 713q0 -280 91.5 -440t260.5 -160q172 0 261 159.5t89 436.5q0 286 -87.5 449t-256.5 163q-173 0 -265.5 -165t-92.5 -443zM327 1567 q0 112 43.5 175.5t112.5 63.5q59 0 129 -63q66 -58 103 -58q32 0 51.5 39t19.5 101h88q0 -113 -42.5 -177.5t-110.5 -64.5q-52 0 -131 64q-65 55 -99 55q-75 0 -75 -135h-89z" />
<glyph unicode="&#xd6;" horiz-adv-x="1210" d="M94 700q0 349 135.5 553.5t388.5 204.5q242 0 371 -195t129 -540q0 -352 -134 -550t-384 -198q-242 0 -374 195.5t-132 529.5zM254 713q0 -280 91.5 -440t260.5 -160q172 0 261 159.5t89 436.5q0 286 -87.5 449t-256.5 163q-173 0 -265.5 -165t-92.5 -443zM357 1661 q0 40 27 66t65 26q42 0 69 -25t27 -67q0 -40 -26 -67t-68 -27q-37 0 -65.5 25.5t-28.5 68.5zM678 1661q0 40 27.5 66t66.5 26q41 0 69 -25t28 -67q0 -40 -26 -67t-68 -27q-41 0 -69 27t-28 67z" />
<glyph unicode="&#xd7;" horiz-adv-x="1073" d="M131 270l328 326l-326 328l78 77l326 -325l327 325l78 -77l-326 -328l328 -326l-80 -77l-327 327l-326 -327z" />
<glyph unicode="&#xd8;" horiz-adv-x="1210" d="M63 12l136 203q-105 188 -105 485q0 354 136.5 556t387.5 202q193 0 316 -129l106 158l78 -57l-121 -181q121 -193 121 -526q0 -354 -134 -551t-384 -197q-210 0 -342 156l-121 -180zM254 711q0 -188 57 -330l537 815q-86 125 -234 125q-174 0 -267 -164.5t-93 -445.5z M348 266q87 -153 256 -153q173 0 262.5 159.5t89.5 438.5q0 236 -67 376z" />
<glyph unicode="&#xd9;" horiz-adv-x="1143" d="M145 565v869h156v-871q0 -450 268 -450q262 0 262 438v883h154v-848q0 -611 -422 -611q-418 0 -418 590zM332 1892h139l194 -325h-116z" />
<glyph unicode="&#xda;" horiz-adv-x="1143" d="M145 565v869h156v-871q0 -450 268 -450q262 0 262 438v883h154v-848q0 -611 -422 -611q-418 0 -418 590zM430 1567l197 325h137l-217 -325h-117z" />
<glyph unicode="&#xdb;" horiz-adv-x="1143" d="M145 565v869h156v-871q0 -450 268 -450q262 0 262 438v883h154v-848q0 -611 -422 -611q-418 0 -418 590zM336 1567l180 331h100l181 -331h-109l-125 223l-125 -223h-102z" />
<glyph unicode="&#xdc;" horiz-adv-x="1143" d="M145 565v869h156v-871q0 -450 268 -450q262 0 262 438v883h154v-848q0 -611 -422 -611q-418 0 -418 590zM312 1661q0 40 27 66t65 26q42 0 69 -25t27 -67q0 -40 -26 -67t-68 -27q-37 0 -65.5 25.5t-28.5 68.5zM633 1661q0 40 27.5 66t66.5 26q41 0 69 -25t28 -67 q0 -40 -26 -67t-68 -27q-41 0 -69 27t-28 67z" />
<glyph unicode="&#xdd;" horiz-adv-x="924" d="M27 1434h176l225 -625q12 -35 18 -59q7 -32 15 -60h4q16 73 33 117l235 627h164l-365 -904v-530h-153v526zM352 1567l197 325h137l-217 -325h-117z" />
<glyph unicode="&#xde;" horiz-adv-x="985" d="M164 0v1434h153v-226h175q391 0 391 -424q0 -204 -114 -335.5t-308 -131.5h-144v-317h-153zM317 453h136q131 0 200.5 87.5t69.5 231.5q0 301 -256 301h-150v-620z" />
<glyph unicode="&#xdf;" horiz-adv-x="922" d="M131 0v1100q0 211 85.5 322.5t246.5 111.5q142 0 226.5 -97t84.5 -253q0 -254 -207 -365v-4q133 -44 210 -155t77 -265q0 -179 -92 -296t-242 -117q-65 0 -129 22v129q54 -31 105 -31q93 0 149.5 80.5t56.5 210.5q0 134 -75 232t-217 127v104q213 62 213 307 q0 112 -43.5 180t-120.5 68q-83 0 -133 -75.5t-50 -235.5v-1100h-145z" />
<glyph unicode="&#xe0;" horiz-adv-x="850" d="M70 268q0 265 274 328l242 55v68q0 199 -176 199q-125 0 -260 -107v147q142 84 280 84q301 0 301 -333v-709h-145v154h-4q-78 -172 -260 -172q-113 0 -182.5 80.5t-69.5 205.5zM215 291q0 -85 44 -135t114 -50q98 0 155.5 79t57.5 206v148l-201 -45q-170 -38 -170 -203z M228 1507h139l194 -325h-116z" />
<glyph unicode="&#xe1;" horiz-adv-x="850" d="M70 268q0 265 274 328l242 55v68q0 199 -176 199q-125 0 -260 -107v147q142 84 280 84q301 0 301 -333v-709h-145v154h-4q-78 -172 -260 -172q-113 0 -182.5 80.5t-69.5 205.5zM215 291q0 -85 44 -135t114 -50q98 0 155.5 79t57.5 206v148l-201 -45q-170 -38 -170 -203z M295 1182l197 325h137l-217 -325h-117z" />
<glyph unicode="&#xe2;" horiz-adv-x="850" d="M70 268q0 265 274 328l242 55v68q0 199 -176 199q-125 0 -260 -107v147q142 84 280 84q301 0 301 -333v-709h-145v154h-4q-78 -172 -260 -172q-113 0 -182.5 80.5t-69.5 205.5zM197 1182l180 331h100l181 -331h-109l-125 223l-125 -223h-102zM215 291q0 -85 44 -135 t114 -50q98 0 155.5 79t57.5 206v148l-201 -45q-170 -38 -170 -203z" />
<glyph unicode="&#xe3;" horiz-adv-x="850" d="M70 268q0 265 274 328l242 55v68q0 199 -176 199q-125 0 -260 -107v147q142 84 280 84q301 0 301 -333v-709h-145v154h-4q-78 -172 -260 -172q-113 0 -182.5 80.5t-69.5 205.5zM151 1182q0 112 43.5 175.5t112.5 63.5q59 0 129 -63q66 -58 103 -58q32 0 51.5 39t19.5 101 h88q0 -113 -42.5 -177.5t-110.5 -64.5q-52 0 -131 64q-65 55 -99 55q-75 0 -75 -135h-89zM215 291q0 -85 44 -135t114 -50q98 0 155.5 79t57.5 206v148l-201 -45q-170 -38 -170 -203z" />
<glyph unicode="&#xe4;" horiz-adv-x="850" d="M70 268q0 265 274 328l242 55v68q0 199 -176 199q-125 0 -260 -107v147q142 84 280 84q301 0 301 -333v-709h-145v154h-4q-78 -172 -260 -172q-113 0 -182.5 80.5t-69.5 205.5zM164 1276q0 40 27 66t65 26q42 0 69 -25t27 -67q0 -40 -26 -67t-68 -27q-37 0 -65.5 25.5 t-28.5 68.5zM215 291q0 -85 44 -135t114 -50q98 0 155.5 79t57.5 206v148l-201 -45q-170 -38 -170 -203zM485 1276q0 40 27.5 66t66.5 26q41 0 69 -25t28 -67q0 -40 -26 -67t-68 -27q-41 0 -69 27t-28 67z" />
<glyph unicode="&#xe5;" horiz-adv-x="850" d="M70 268q0 265 274 328l242 55v68q0 199 -176 199q-125 0 -260 -107v147q142 84 280 84q301 0 301 -333v-709h-145v154h-4q-78 -172 -260 -172q-113 0 -182.5 80.5t-69.5 205.5zM215 291q0 -85 44 -135t114 -50q98 0 155.5 79t57.5 206v148l-201 -45q-170 -38 -170 -203z M229 1378q0 83 56 140t141 57q84 0 140.5 -56.5t56.5 -140.5t-57 -140t-140 -56q-84 0 -140.5 56t-56.5 140zM318 1378q0 -45 31 -77.5t77 -32.5t77.5 32.5t31.5 77.5q0 47 -31 78t-78 31q-46 0 -77 -32.5t-31 -76.5z" />
<glyph unicode="&#xe6;" horiz-adv-x="1348" d="M70 270q0 136 78 220.5t223 99.5l217 18q0 310 -176 310q-143 0 -265 -109v147q127 86 281 86q184 0 242 -206h4q83 206 289 206q327 0 327 -491v-72h-567q10 -373 268 -373q116 0 240 84v-137q-114 -71 -258 -71q-119 0 -209.5 65t-126.5 176h-4q-107 -241 -299 -241 q-118 0 -191 79.5t-73 208.5zM215 287q0 -77 41 -129t115 -52q92 0 154.5 92t62.5 234v66l-170 -11q-203 -13 -203 -200zM727 596h422q0 326 -191 326q-105 0 -165.5 -86.5t-65.5 -239.5z" />
<glyph unicode="&#xe7;" horiz-adv-x="737" d="M76 492q0 254 118.5 403t301.5 149q111 0 180 -47v-147q-79 68 -172 68q-123 0 -200 -117.5t-77 -298.5q0 -180 70 -286.5t186 -106.5q108 0 193 75v-137q-90 -69 -227 -65v-88q163 -10 163 -152q0 -180 -219 -180q-29 0 -65 4v92q33 -6 61 -6q111 0 111 86q0 80 -101 80 h-20q-10 0 -21 -2v180q-133 41 -207.5 175t-74.5 321z" />
<glyph unicode="&#xe8;" horiz-adv-x="850" d="M76 518q0 232 103 378t280 146q332 0 332 -467v-98h-566q0 -371 269 -371q116 0 237 82v-137q-120 -69 -256 -69q-195 0 -297 136t-102 400zM227 594h420q0 328 -194 328q-97 0 -157.5 -83t-68.5 -245zM254 1507h139l194 -325h-116z" />
<glyph unicode="&#xe9;" horiz-adv-x="850" d="M76 518q0 232 103 378t280 146q332 0 332 -467v-98h-566q0 -371 269 -371q116 0 237 82v-137q-120 -69 -256 -69q-195 0 -297 136t-102 400zM227 594h420q0 328 -194 328q-97 0 -157.5 -83t-68.5 -245zM321 1182l197 325h137l-217 -325h-117z" />
<glyph unicode="&#xea;" horiz-adv-x="850" d="M76 518q0 232 103 378t280 146q332 0 332 -467v-98h-566q0 -371 269 -371q116 0 237 82v-137q-120 -69 -256 -69q-195 0 -297 136t-102 400zM209 1182l180 331h100l181 -331h-109l-125 223l-125 -223h-102zM227 594h420q0 328 -194 328q-97 0 -157.5 -83t-68.5 -245z" />
<glyph unicode="&#xeb;" horiz-adv-x="850" d="M76 518q0 232 103 378t280 146q332 0 332 -467v-98h-566q0 -371 269 -371q116 0 237 82v-137q-120 -69 -256 -69q-195 0 -297 136t-102 400zM193 1276q0 40 27 66t65 26q42 0 69 -25t27 -67q0 -40 -26 -67t-68 -27q-37 0 -65.5 25.5t-28.5 68.5zM227 594h420 q0 328 -194 328q-97 0 -157.5 -83t-68.5 -245zM514 1276q0 40 27.5 66t66.5 26q41 0 69 -25t28 -67q0 -40 -26 -67t-68 -27q-41 0 -69 27t-28 67z" />
<glyph unicode="&#xec;" horiz-adv-x="416" d="M-17 1507h139l194 -325h-116zM135 0v1024h146v-1024h-146z" />
<glyph unicode="&#xed;" horiz-adv-x="416" d="M64 1182l197 325h137l-217 -325h-117zM135 0v1024h146v-1024h-146z" />
<glyph unicode="&#xee;" horiz-adv-x="416" d="M-19 1182l180 331h100l181 -331h-109l-125 223l-125 -223h-102zM135 0v1024h146v-1024h-146z" />
<glyph unicode="&#xef;" horiz-adv-x="416" d="M-46 1276q0 40 27 66t65 26q42 0 69 -25t27 -67q0 -40 -26 -67t-68 -27q-37 0 -65.5 25.5t-28.5 68.5zM135 0v1024h146v-1024h-146zM275 1276q0 40 27.5 66t66.5 26q41 0 69 -25t28 -67q0 -40 -26 -67t-68 -27q-41 0 -69 27t-28 67z" />
<glyph unicode="&#xf0;" horiz-adv-x="913" d="M76 508q0 250 101.5 391t262.5 141q110 0 181 -86h4q-75 175 -172 289l-232 -141l-51 86l215 129q-121 127 -205 196h185q65 -57 129 -129l223 138l51 -82l-205 -127q277 -344 277 -793q0 -245 -100.5 -391.5t-282.5 -146.5q-184 0 -282.5 139.5t-98.5 386.5zM227 508 q0 -399 232 -399q229 0 229 407q0 399 -225 399q-236 0 -236 -407z" />
<glyph unicode="&#xf1;" horiz-adv-x="940" d="M131 0v1024h145v-154h5q77 172 260 172q278 0 278 -327v-715h-145v680q0 235 -185 235q-95 0 -154 -68.5t-59 -187.5v-659h-145zM222 1182q0 112 43.5 175.5t112.5 63.5q59 0 129 -63q66 -58 103 -58q32 0 51.5 39t19.5 101h88q0 -113 -42.5 -177.5t-110.5 -64.5 q-52 0 -131 64q-65 55 -99 55q-75 0 -75 -135h-89z" />
<glyph unicode="&#xf2;" horiz-adv-x="924" d="M76 504q0 255 104 396.5t287 141.5q180 0 281.5 -138.5t101.5 -379.5q0 -256 -100.5 -399t-290.5 -143q-184 0 -283.5 139t-99.5 383zM227 510q0 -401 238 -401q231 0 231 407q0 192 -60 295.5t-171 103.5q-113 0 -175.5 -105t-62.5 -300zM273 1507h139l194 -325h-116z " />
<glyph unicode="&#xf3;" horiz-adv-x="924" d="M76 504q0 255 104 396.5t287 141.5q180 0 281.5 -138.5t101.5 -379.5q0 -256 -100.5 -399t-290.5 -143q-184 0 -283.5 139t-99.5 383zM227 510q0 -401 238 -401q231 0 231 407q0 192 -60 295.5t-171 103.5q-113 0 -175.5 -105t-62.5 -300zM323 1182l197 325h137 l-217 -325h-117z" />
<glyph unicode="&#xf4;" horiz-adv-x="924" d="M76 504q0 255 104 396.5t287 141.5q180 0 281.5 -138.5t101.5 -379.5q0 -256 -100.5 -399t-290.5 -143q-184 0 -283.5 139t-99.5 383zM227 510q0 -401 238 -401q231 0 231 407q0 192 -60 295.5t-171 103.5q-113 0 -175.5 -105t-62.5 -300zM238 1182l180 331h100l181 -331 h-109l-125 223l-125 -223h-102z" />
<glyph unicode="&#xf5;" horiz-adv-x="924" d="M76 504q0 255 104 396.5t287 141.5q180 0 281.5 -138.5t101.5 -379.5q0 -256 -100.5 -399t-290.5 -143q-184 0 -283.5 139t-99.5 383zM184 1182q0 112 43.5 175.5t112.5 63.5q59 0 129 -63q66 -58 103 -58q32 0 51.5 39t19.5 101h88q0 -113 -42.5 -177.5t-110.5 -64.5 q-52 0 -131 64q-65 55 -99 55q-75 0 -75 -135h-89zM227 510q0 -401 238 -401q231 0 231 407q0 192 -60 295.5t-171 103.5q-113 0 -175.5 -105t-62.5 -300z" />
<glyph unicode="&#xf6;" horiz-adv-x="924" d="M76 504q0 255 104 396.5t287 141.5q180 0 281.5 -138.5t101.5 -379.5q0 -256 -100.5 -399t-290.5 -143q-184 0 -283.5 139t-99.5 383zM211 1276q0 40 27 66t65 26q42 0 69 -25t27 -67q0 -40 -26 -67t-68 -27q-37 0 -65.5 25.5t-28.5 68.5zM227 510q0 -401 238 -401 q231 0 231 407q0 192 -60 295.5t-171 103.5q-113 0 -175.5 -105t-62.5 -300zM532 1276q0 40 27.5 66t66.5 26q41 0 69 -25t28 -67q0 -40 -26 -67t-68 -27q-41 0 -69 27t-28 67z" />
<glyph unicode="&#xf7;" horiz-adv-x="1073" d="M158 545v106h760v-106h-760zM446 244q0 38 27.5 64t65.5 26t63 -26t25 -64q0 -41 -25.5 -65.5t-62.5 -24.5t-65 26t-28 64zM449 952q0 37 25.5 63.5t66.5 26.5q38 0 63 -25.5t25 -64.5q0 -38 -25.5 -64t-62.5 -26q-39 0 -65.5 26t-26.5 64z" />
<glyph unicode="&#xf8;" horiz-adv-x="924" d="M20 -25l130 187q-74 133 -74 342q0 256 103.5 397t287.5 141q147 0 240 -96l122 174l78 -63l-133 -191q76 -136 76 -344q0 -255 -100.5 -397.5t-288.5 -142.5q-153 0 -246 96l-119 -166zM221 512q0 -122 33 -209l373 533q-65 86 -162 86q-115 0 -179.5 -105t-64.5 -305z M297 190q65 -88 168 -88q235 0 235 410q0 125 -30 211z" />
<glyph unicode="&#xf9;" horiz-adv-x="940" d="M121 309v715h145v-680q0 -235 185 -235q95 0 155 69.5t60 186.5v659h145v-1024h-145v154h-4q-83 -172 -261 -172q-280 0 -280 327zM248 1507h139l194 -325h-116z" />
<glyph unicode="&#xfa;" horiz-adv-x="940" d="M121 309v715h145v-680q0 -235 185 -235q95 0 155 69.5t60 186.5v659h145v-1024h-145v154h-4q-83 -172 -261 -172q-280 0 -280 327zM335 1182l197 325h137l-217 -325h-117z" />
<glyph unicode="&#xfb;" horiz-adv-x="940" d="M121 309v715h145v-680q0 -235 185 -235q95 0 155 69.5t60 186.5v659h145v-1024h-145v154h-4q-83 -172 -261 -172q-280 0 -280 327zM240 1182l180 331h100l181 -331h-109l-125 223l-125 -223h-102z" />
<glyph unicode="&#xfc;" horiz-adv-x="940" d="M121 309v715h145v-680q0 -235 185 -235q95 0 155 69.5t60 186.5v659h145v-1024h-145v154h-4q-83 -172 -261 -172q-280 0 -280 327zM209 1276q0 40 27 66t65 26q42 0 69 -25t27 -67q0 -40 -26 -67t-68 -27q-37 0 -65.5 25.5t-28.5 68.5zM530 1276q0 40 27.5 66t66.5 26 q41 0 69 -25t28 -67q0 -40 -26 -67t-68 -27q-41 0 -69 27t-28 67z" />
<glyph unicode="&#xfd;" horiz-adv-x="784" d="M6 1024h164l197 -752q14 -53 22 -120h4q19 89 27 118l207 754h153l-364 -1192q-96 -313 -283 -313q-54 0 -100 20v125q35 -18 80 -18q93 0 145 157l61 197zM301 1182l197 325h137l-217 -325h-117z" />
<glyph unicode="&#xfe;" horiz-adv-x="946" d="M131 -442v1958h145v-660h3q81 186 270 186q155 0 238 -126.5t83 -354.5q0 -268 -91.5 -423.5t-260.5 -155.5q-166 0 -237 149h-5v-573h-145zM274 432q0 -146 56.5 -234.5t158.5 -88.5q230 0 230 442q0 176 -55 270t-158 94q-107 0 -169.5 -94t-62.5 -254v-135z" />
<glyph unicode="&#xff;" horiz-adv-x="784" d="M6 1024h164l197 -752q14 -53 22 -120h4q19 89 27 118l207 754h153l-364 -1192q-96 -313 -283 -313q-54 0 -100 20v125q35 -18 80 -18q93 0 145 157l61 197zM140 1276q0 40 27 66t65 26q42 0 69 -25t27 -67q0 -40 -26 -67t-68 -27q-37 0 -65.5 25.5t-28.5 68.5zM461 1276 q0 40 27.5 66t66.5 26q41 0 69 -25t28 -67q0 -40 -26 -67t-68 -27q-41 0 -69 27t-28 67z" />
<glyph unicode="&#x152;" horiz-adv-x="1556" d="M94 700q0 350 147 554t408 204q74 0 125 -9l88 -15h563v-136h-432v-510h402v-135h-402v-518h457v-135h-594q-46 -6 -101 -15q-55 -10 -124 -10q-254 0 -395.5 199t-141.5 526zM254 711q0 -268 101 -433t282 -165q99 0 194 34v1145q-89 29 -190 29q-179 0 -283 -171.5 t-104 -438.5z" />
<glyph unicode="&#x153;" horiz-adv-x="1511" d="M76 508q0 253 109.5 393.5t291.5 140.5q239 0 324 -243h2q93 243 315 243q162 0 247 -127.5t85 -367.5v-68h-576q3 -176 74 -274.5t193 -98.5q139 0 256 101v-137q-106 -88 -283 -88q-232 0 -315 241h-4q-92 -241 -326 -241q-183 0 -288 144t-105 382zM227 508 q0 -185 67 -292t185 -107q119 0 183.5 106t64.5 301t-64 297t-182 102q-117 0 -185.5 -108t-68.5 -299zM877 594h430q-6 328 -199 328q-95 0 -157 -90t-74 -238z" />
<glyph unicode="&#x178;" horiz-adv-x="924" d="M27 1434h176l225 -625q12 -35 18 -59q7 -32 15 -60h4q16 73 33 117l235 627h164l-365 -904v-530h-153v526zM207 1661q0 40 27 66t65 26q42 0 69 -25t27 -67q0 -40 -26 -67t-68 -27q-37 0 -65.5 25.5t-28.5 68.5zM528 1661q0 40 27.5 66t66.5 26q41 0 69 -25t28 -67 q0 -40 -26 -67t-68 -27q-41 0 -69 27t-28 67z" />
<glyph unicode="&#x2c6;" horiz-adv-x="623" d="M76 1182l180 331h100l181 -331h-109l-125 223l-125 -223h-102z" />
<glyph unicode="&#x2dc;" horiz-adv-x="559" d="M20 1182q0 112 43.5 175.5t112.5 63.5q59 0 129 -63q66 -58 103 -58q32 0 51.5 39t19.5 101h88q0 -113 -42.5 -177.5t-110.5 -64.5q-52 0 -131 64q-65 55 -99 55q-75 0 -75 -135h-89z" />
<glyph unicode="&#x2000;" horiz-adv-x="949" />
<glyph unicode="&#x2001;" horiz-adv-x="1898" />
<glyph unicode="&#x2002;" horiz-adv-x="949" />
<glyph unicode="&#x2003;" horiz-adv-x="1898" />
<glyph unicode="&#x2004;" horiz-adv-x="632" />
<glyph unicode="&#x2005;" horiz-adv-x="474" />
<glyph unicode="&#x2006;" horiz-adv-x="316" />
<glyph unicode="&#x2007;" horiz-adv-x="316" />
<glyph unicode="&#x2008;" horiz-adv-x="237" />
<glyph unicode="&#x2009;" horiz-adv-x="379" />
<glyph unicode="&#x200a;" horiz-adv-x="105" />
<glyph unicode="&#x2010;" horiz-adv-x="649" d="M109 526v117h432v-117h-432z" />
<glyph unicode="&#x2011;" horiz-adv-x="649" d="M109 526v117h432v-117h-432z" />
<glyph unicode="&#x2012;" horiz-adv-x="649" d="M109 526v117h432v-117h-432z" />
<glyph unicode="&#x2013;" horiz-adv-x="1024" d="M0 526v117h1024v-117h-1024z" />
<glyph unicode="&#x2014;" horiz-adv-x="2048" d="M0 526v117h2048v-117h-2048z" />
<glyph unicode="&#x2018;" horiz-adv-x="397" d="M86 999l135 449h98l-94 -449h-139z" />
<glyph unicode="&#x2019;" horiz-adv-x="397" d="M78 999l96 449h137l-135 -449h-98z" />
<glyph unicode="&#x201a;" horiz-adv-x="397" d="M78 -225l96 444h137l-135 -444h-98z" />
<glyph unicode="&#x201c;" horiz-adv-x="647" d="M86 999l135 449h98l-94 -449h-139zM336 999l137 449h96l-94 -449h-139z" />
<glyph unicode="&#x201d;" horiz-adv-x="647" d="M78 999l94 449h139l-137 -449h-96zM328 999l94 449h139l-135 -449h-98z" />
<glyph unicode="&#x201e;" horiz-adv-x="647" d="M78 -227l96 446h137l-135 -446h-98zM328 -227l94 446h139l-135 -446h-98z" />
<glyph unicode="&#x2022;" horiz-adv-x="682" d="M82 674q0 101 75 175.5t177 74.5t175 -74.5t73 -175.5t-72 -173.5t-176 -72.5t-178 72.5t-74 173.5z" />
<glyph unicode="&#x2026;" horiz-adv-x="1444" d="M129 92q0 48 30 77.5t77 29.5q48 0 78 -30t30 -77q0 -46 -30 -77t-78 -31q-46 0 -76.5 31t-30.5 77zM612 92q0 48 30 77.5t77 29.5q46 0 77 -30t31 -77q0 -46 -30 -77t-78 -31q-46 0 -76.5 31t-30.5 77zM1098 92q0 48 30 77.5t76 29.5q48 0 78.5 -30t30.5 -77 q0 -46 -30.5 -77t-78.5 -31q-47 0 -76.5 31.5t-29.5 76.5z" />
<glyph unicode="&#x202f;" horiz-adv-x="379" />
<glyph unicode="&#x2039;" horiz-adv-x="522" d="M74 537l235 344h137l-239 -344l242 -336h-140z" />
<glyph unicode="&#x203a;" horiz-adv-x="522" d="M76 201l241 340l-241 340h139l236 -340l-236 -340h-139z" />
<glyph unicode="&#x205f;" horiz-adv-x="474" />
<glyph unicode="&#x20ac;" d="M72 500v104h94q0 177 2 205h-96v106h108q33 259 146.5 401t275.5 142q113 0 207 -53v-139q-96 77 -203 77q-108 0 -186.5 -116t-100.5 -312h394v-106h-406q-4 -52 -4 -109v-50q0 -23 2 -46h408v-104h-394q18 -193 92.5 -301.5t180.5 -108.5q109 0 217 90v-131 q-97 -74 -238 -74q-156 0 -260 136.5t-133 388.5h-106z" />
<glyph unicode="&#x2122;" horiz-adv-x="1583" d="M55 1343v91h523v-91h-211v-571h-101v571h-211zM666 772v662h141l207 -433h4l217 433h131v-662h-98v510h-4l-211 -390h-84l-199 390h-6v-510h-98z" />
<glyph unicode="&#x25fc;" horiz-adv-x="1025" d="M0 0v1025h1025v-1025h-1025z" />
<glyph unicode="&#xfb01;" horiz-adv-x="915" d="M27 901v123h147v205q0 141 72.5 222t206.5 81q37 0 90 -10v-129q-35 12 -82 12q-142 0 -142 -174v-207h205v-123h-205v-901h-145v901h-147zM614 1348q0 46 30 73t71 27q43 0 72.5 -27.5t29.5 -72.5q0 -44 -28 -73.5t-74 -29.5q-41 0 -71 29.5t-30 73.5zM641 0v1024h145 v-1024h-145z" />
<glyph unicode="&#xfb02;" horiz-adv-x="915" d="M27 901v123h147v205q0 141 72.5 222t206.5 81q37 0 90 -10v-129q-35 12 -82 12q-142 0 -142 -174v-207h205v-123h-205v-901h-145v901h-147zM641 0v1516h145v-1516h-145z" />
</font>
</defs>
</svg>
